<?xml version="1.0" encoding="utf-8"?>
<?xml-stylesheet type="text/css" href="../css/main.css" ?>
<!-- Generator: Adobe Illustrator 16.0.0, SVG Export Plug-In . SVG Version: 6.00 Build 0)  -->
<!DOCTYPE svg PUBLIC "-//W3C//DTD SVG 1.1//EN" "http://www.w3.org/Graphics/SVG/1.1/DTD/svg11.dtd">
<svg version="1.1" id="Layer_1" xmlns="http://www.w3.org/2000/svg" xmlns:xlink="http://www.w3.org/1999/xlink" x="0px" y="0px"
	 viewBox="0 43.5 2993.5 888.5" enable-background="new 0 43.5 2993.5 888.5"
	 xml:space="preserve">
<g id="bg">
</g>
<g id="_x33___pattern">
</g>
<g id="_x32___pattern">
	<g>
		<polygon fill="#B9CFC7" points="503.188,539.676 631.747,633.009 745.766,490.861 954.547,570.178 1073.011,447.907
			1018.795,364.083 916.352,391.597 823.916,300.863 765.404,232.047 677.617,305.7 610.231,324.306 519.581,291.417
			368.72,394.004 343.87,450.653 430.335,445.697 		"/>
		<polygon fill="#98AA9A" points="299.1,619.879 473.095,830.799 631.747,633.009 503.188,539.676 430.335,445.697 343.87,450.653
			281.393,593.08 		"/>
		<g>
			<polygon fill="#B5CDC4" points="96.976,548.266 237.703,526.958 281.393,593.08 343.87,450.653 302.935,453 68.262,267.087
				0,264.964 0,486.879 			"/>
			<polygon fill="#889891" points="119.232,765.23 172.011,625.037 261.812,637.717 281.393,593.08 237.703,526.958 96.976,548.266
				0,486.879 0,932 5.506,932 38.509,784.277 			"/>
		</g>
		<polygon fill="#697775" points="473.095,830.799 299.1,619.879 281.393,593.08 261.812,637.717 172.011,625.037 119.232,765.23
			38.509,784.277 5.506,932 391.919,932 		"/>
		<path fill="#AFC6A1" d="M1197.914,524.979l151.597,111.973l25.382-17.54l130.887,69.565l59.491-48.377l97.214-20.775
			l85.246-89.813l78.055,62.562l46.223,14.66l26.174,66.071l30.567-16.557c20.264-30.523,38.028-56.704,50.642-74.245
			c11.91-16.564,59.821-84.219,59.821-84.219l77.847,46.008l87.021-25.651l117.463,25.554l42.232-44.394l-118.356-111.932
			l-131.114-23.833l-41.092-94.282L1873.255,58.656l-138.559,151.623l-89.948-31.29l-82.246,92.612l-145.688,69.977l-157.588-85.872
			l-186.216,192.2l26.872,41.546L1197.914,524.979z"/>
		<path fill="#A3B695" d="M745.766,490.861L631.747,633.009l77.236,56.073c0,0,137.438,155.396,234.499,242.465l51.969-43.295
			l33.49-87.867l124.321-27.822l196.248-135.611l-151.597-111.974l-98.031-35.523l-26.872-41.546l-118.464,122.27L745.766,490.861z"
			/>
		<path fill="#889891" d="M708.982,689.082l-77.236-56.073l-158.652,197.79L556.579,932h386.358l0.543-0.453
			C846.421,844.479,708.982,689.082,708.982,689.082z"/>
		<polygon fill="#697775" points="391.919,932 556.579,932 473.095,830.799 		"/>
		<path fill="#A3B695" d="M2204.08,518.641l-87.021,25.651l-77.847-46.008c0,0-47.911,67.653-59.821,84.219
			c-12.611,17.541-30.378,43.722-50.642,74.245l46.187-25.016l84.32,32.408c0,0,45.262-47.719,64.102-74.096
			c30.54,12.529,84.787,59.508,84.787,59.508l277.857,117.307c25.159-21.646,46.561-40.139,60.844-52.502l-80.325-117.392
			L2363.777,499.8l-42.232,44.394L2204.08,518.641z"/>
		<path fill="#889891" d="M1898.182,673.305l-26.174-66.071l-46.223-14.66l-78.054-62.562l-85.246,89.813c0,0,2.864-3.309,0,0
			c-2.696,0.025-97.214,20.775-97.214,20.775l-59.492,48.377l-130.886-69.565l-25.382,17.54l16.768,12.385l230.62,164.421
			L1702.097,932h48.901c34.568-54.421,117.289-184.177,177.751-275.252L1898.182,673.305z"/>
		<path fill="#697775" d="M1366.279,649.335l-16.769-12.385l-196.248,135.612l-124.321,27.821l-33.49,87.867l-51.969,43.295
			c0.168,0.15,0.337,0.303,0.505,0.453h396.579c74.865,0,135.266,0,173.884,0c62.54,0,125.08,0,187.646,0L1596.9,813.755
			L1366.279,649.335z"/>
		<path fill="#691C0C" d="M943.986,932c-0.167-0.15-0.337-0.303-0.506-0.453L942.938,932H943.986z"/>
		<path fill="#98AA9A" d="M2208.145,649.554c0,0-54.248-46.979-84.787-59.508c-18.84,26.377-64.102,74.096-64.102,74.096
			l-84.32-32.408l-46.187,25.016c-60.462,91.075-143.183,220.831-177.751,275.252h540.16
			c56.902-46.917,136.108-114.61,194.844-165.141L2208.145,649.554z"/>
		<path fill="#B5CDC4" d="M2821.24,184.567l-161.247,106.711l-97.099-34.036L2441.01,418.619l-77.232,81.182l102.742,97.166
			l80.326,117.392c11.965-10.356,18.94-16.416,18.94-16.416l45.896-56.63l92.396,0.263l154.373-52.646l136.943-104.965l4.604,2.915
			V264.964l-69.976-2.176L2821.24,184.567z"/>
		<path fill="#889891" d="M2995.395,483.964l-136.942,104.965l-154.373,52.646l-92.396-0.263l-45.896,56.63
			c0,0-6.977,6.06-18.939,16.416l75.233,109.949l84.569,35.703l83.354-106.325L2998,932h2V486.879L2995.395,483.964z"/>
		<path fill="#889891" d="M2622.08,824.308l-75.234-109.949c-14.283,12.363-35.685,30.856-60.844,52.502L2622.08,824.308z"/>
		<polygon fill="#697775" points="2706.648,860.011 2622.08,824.308 2695.77,932 2998,932 2790.004,753.686 		"/>
		<path fill="#697775" d="M2486.002,766.859c-58.734,50.529-137.939,118.224-194.844,165.141h404.611l-73.689-107.692
			L2486.002,766.859z"/>
	</g>
</g>
<g id="_x31__pattern">
</g>
</svg>
