<?xml version="1.0" encoding="utf-8"?>
<?xml-stylesheet type="text/css" href="../css/main.css" ?>
<!-- Generator: Adobe Illustrator 16.0.0, SVG Export Plug-In . SVG Version: 6.00 Build 0)  -->
<!DOCTYPE svg PUBLIC "-//W3C//DTD SVG 1.1//EN" "http://www.w3.org/Graphics/SVG/1.1/DTD/svg11.dtd">
<svg version="1.1" xmlns="http://www.w3.org/2000/svg" xmlns:xlink="http://www.w3.org/1999/xlink" x="0px" y="0px"
	 viewBox="0 0 2994.494 903" enable-background="new 0 0 2994.494 903" xml:space="preserve">
<g id="bg">
</g>
<g id="_x33___pattern">
	<g>
		<polygon fill="#DFF0D7" points="497.683,515.676 626.241,609.009 740.26,466.861 949.041,546.178 1067.505,423.907
			1013.289,340.084 910.846,367.597 818.41,276.863 759.898,208.047 672.111,281.699 604.725,300.306 514.075,267.416
			363.214,370.004 338.364,426.653 424.829,421.697 		"/>
		<polygon fill="#C4E5B1" points="293.594,595.879 467.589,806.799 626.241,609.009 497.683,515.676 424.829,421.697
			338.364,426.653 275.887,569.08 		"/>
		<g>
			<polygon fill="#CCEFD1" points="91.47,524.266 232.197,502.958 275.887,569.08 338.364,426.653 297.429,429 62.756,243.087
				-5.506,240.964 -5.506,462.879 			"/>
			<polygon fill="#D9CD7C" points="113.727,741.23 166.505,601.037 256.307,613.717 275.887,569.08 232.197,502.958 91.47,524.266
				-5.506,462.879 -5.506,908 0,908 33.003,760.277 			"/>
		</g>
		<polygon fill="#EEA878" points="467.589,806.799 293.594,595.879 275.887,569.08 256.307,613.717 166.505,601.037 113.727,741.23
			33.003,760.277 0,908 386.413,908 		"/>
		<path fill="#D6F0D7" d="M1192.408,500.978l151.597,111.973l25.382-17.54l130.886,69.566l59.492-48.377l97.214-20.776
			l85.246-89.813l78.054,62.562l46.223,14.66l26.174,66.072l30.567-16.557c20.264-30.523,38.029-56.704,50.642-74.245
			c11.91-16.565,59.821-84.219,59.821-84.219l77.847,46.008l87.021-25.651l117.463,25.553l42.233-44.393l-118.357-111.932
			l-131.114-23.834l-41.092-94.281L1867.749,34.656L1729.19,186.279l-89.948-31.289l-82.246,92.611l-145.688,69.977l-157.588-85.871
			l-186.215,192.2l26.872,41.546L1192.408,500.978z"/>
		<path fill="#D3DB88" d="M740.26,466.861L626.241,609.009l77.236,56.073c0,0,137.439,155.396,234.499,242.465l51.969-43.295
			l33.49-87.867l124.322-27.822l196.248-135.612l-151.597-111.973l-98.031-35.524l-26.872-41.546L949.041,546.178L740.26,466.861z"
			/>
		<path fill="#EFA878" d="M703.477,665.082l-77.236-56.073l-158.652,197.79L551.073,908h386.358l0.544-0.453
			C840.916,820.478,703.477,665.082,703.477,665.082z"/>
		<polygon fill="#F58878" points="386.413,908 551.073,908 467.589,806.799 		"/>
		<path fill="#C4E5B1" d="M2198.574,494.641l-87.021,25.651l-77.847-46.008c0,0-47.911,67.653-59.821,84.219
			c-12.612,17.541-30.378,43.722-50.642,74.245l46.187-25.016l84.32,32.409c0,0,45.262-47.719,64.101-74.096
			c30.54,12.529,84.787,59.508,84.787,59.508l277.858,117.306c25.159-21.645,46.56-40.138,60.844-52.502l-80.326-117.391
			l-102.743-97.166l-42.233,44.393L2198.574,494.641z"/>
		<path fill="#D9CD7C" d="M1892.676,649.305l-26.174-66.072l-46.223-14.66l-78.054-62.562l-85.246,89.813c0,0,2.864-3.308,0,0
			c-2.696,0.026-97.214,20.776-97.214,20.776l-59.492,48.377l-130.886-69.566l-25.382,17.54l16.768,12.385l230.62,164.421
			L1696.591,908h48.901c34.568-54.421,117.289-184.177,177.751-275.252L1892.676,649.305z"/>
		<path fill="#EDA878" d="M1360.773,625.335l-16.768-12.385l-196.248,135.612l-124.322,27.822l-33.49,87.867l-51.969,43.295
			c0.168,0.15,0.337,0.303,0.505,0.453h396.579c74.866,0,135.266,0,173.884,0c62.54,0,125.08,0,187.647,0l-105.197-118.244
			L1360.773,625.335z"/>
		<path fill="#691C0C" d="M938.48,908c-0.167-0.15-0.337-0.303-0.505-0.453L937.432,908H938.48z"/>
		<path fill="#EDA878" d="M2202.638,625.554c0,0-54.247-46.979-84.787-59.508c-18.839,26.377-64.101,74.096-64.101,74.096
			l-84.32-32.409l-46.187,25.016c-60.462,91.075-143.183,220.831-177.751,275.252h540.16
			c56.903-46.917,136.109-114.61,194.844-165.141L2202.638,625.554z"/>
		<path fill="#CCEFD1" d="M2815.734,160.566l-161.247,106.711l-97.099-34.035l-121.885,161.377l-77.233,81.182l102.743,97.166
			l80.326,117.391c11.965-10.356,18.94-16.416,18.94-16.416l45.896-56.629l92.396,0.262l154.373-52.646l136.943-104.965l4.605,2.915
			V240.964l-69.976-2.177L2815.734,160.566z"/>
		<path fill="#D9CD7C" d="M2989.889,459.964l-136.943,104.965l-154.373,52.646l-92.396-0.262l-45.896,56.629
			c0,0-6.976,6.06-18.94,16.416l75.234,109.95l84.569,35.703l83.354-106.325L2992.494,908h2V462.879L2989.889,459.964z"/>
		<path fill="#D9CD7C" d="M2616.574,800.308l-75.234-109.95c-14.284,12.364-35.685,30.857-60.844,52.502L2616.574,800.308z"/>
		<polygon fill="#F29E77" points="2701.144,836.011 2616.574,800.308 2690.264,908 2992.494,908 2784.498,729.686 		"/>
		<path fill="#F58878" d="M2480.496,742.859c-58.734,50.53-137.94,118.224-194.844,165.141h404.611l-73.689-107.692
			L2480.496,742.859z"/>
	</g>
</g>
<g id="_x32___pattern">
</g>
<g id="_x31__pattern">
</g>
</svg>
