<?xml version="1.0" encoding="utf-8"?>
<?xml-stylesheet type="text/css" href="../css/main.css" ?>
<!-- Generator: Adobe Illustrator 16.0.0, SVG Export Plug-In . SVG Version: 6.00 Build 0)  -->
<!DOCTYPE svg PUBLIC "-//W3C//DTD SVG 1.1//EN" "http://www.w3.org/Graphics/SVG/1.1/DTD/svg11.dtd">
<svg version="1.1" id="Layer_1" xmlns="http://www.w3.org/2000/svg" xmlns:xlink="http://www.w3.org/1999/xlink" x="0px" y="0px"
 viewBox="0 0 338.312 105.965" enable-background="new 0 0 338.312 105.965"
	 xml:space="preserve">
<path opacity="0.6" fill="#808285" d="M21.226,77.378c0,0-3.409,3.118-5.114,3.118S8.61,76.599,8.61,76.599L0,80.197v25.768h42.706
	L21.226,77.378z"/>
<path opacity="0.3" fill="#A7A9AC" d="M20.619,46.867c0,0-5.982,6.447-8.976,6.447C9.37,53.314,2.95,48.661,0,46.428v59.537h58.317
	L20.619,46.867z"/>
<path opacity="0.4" fill="#A7A9AC" d="M106.962,105.965l28.732-50.168c0,0,4.56,5.473,6.841,5.473c2.28,0,10.033-6.84,10.033-6.84
	l14.139,7.753l18.099-34.516l15.333,10l5.334-2l10.945,17.85l7.298-10.489l25.996,39.678l5.854-5.016l18.318,28.275H106.962z"/>
<path opacity="0.4" fill="#58595B" d="M50.587,88.258c0,0,11.896,3.321,16.323,6.918c4.427,3.597,10.236-8.576,10.236-8.576
	l8.021,6.086c0,0,22.963-0.276,31.815-10.236l2.213,1.384c0,0,25.175-4.979,43.709-22.132c0,0,10.789,11.896,12.449,12.174
	l3.32-5.258l32.366,37.348H33.435L50.587,88.258z"/>
<path opacity="0.4" fill="#BCBEC0" d="M306.699,76.439c0,0-3.229-28.106-20.562-21.439c-8.774,3.375-22.875-9.004-22.875-9.004
	l-13.12,10.148c0,0-25.398-14.301-39.874-30.907l-15.773,2.306c0,0-41.171,33.212-71.483,4.614c0,0-41.953,19.836-44.668,20.297
	L48.605,43.69l-28.624,62.275h314.767L306.699,76.439z"/>
<polygon opacity="0.6" fill="#808285" points="336.352,81.017 329.87,72.051 310.111,68.955 301.932,66.203 290.339,76.078
	284.883,70.102 265.448,92.711 261.071,89.853 256.224,105.965 338.312,105.965 338.312,80.197 "/>
<path opacity="0.3" fill="#A7A9AC" d="M336.791,51.064l-18.55,8.26l-12.771-24.658l-20.333-12.333L275.471,27l-17.633-16.43
	l-18.367,26.096l-12.666-5.333l-25.667,36.333l-15,3.668l-8.514,34.631h160.688v-53.84C337.38,51.487,336.791,51.064,336.791,51.064
	z"/>
<path opacity="0.3" fill="#A7A9AC" d="M316.471,105.965l-17-15.965l-14.667,1.333l-24.333-21.667L235.137,78l-8-15.667L194.471,52
	l-22.332-9.333c0,0-16.269,5.667-19,5.667s-5.678-18.019-5.678-18.019L127.47,48.666L98.139,7l-16.394,4.57L73.139,5l-12.15,23.975
	l-19.85-8.642L21.113,71.822l-6.226,2.304L2.163,105.965H316.471z"/>
<path opacity="0.4" fill="#808285" d="M39.815,105.965l16.113-38.133c0,0,2.558,4.16,3.837,4.16c1.278,0,5.627-5.199,5.627-5.199
	l7.93,5.894L85.601,50.5l5.882,6.586l1.023-4.16l8.696,13.173l4.093-7.973l14.579,30.159l7.599,1.192l5.958,16.486H39.815z"/>
</svg>
