<?xml version="1.0" encoding="utf-8"?>
<?xml-stylesheet type="text/css" href="../css/main.css" ?>
<!-- Generator: Adobe Illustrator 16.0.0, SVG Export Plug-In . SVG Version: 6.00 Build 0)  -->
<!DOCTYPE svg PUBLIC "-//W3C//DTD SVG 1.1//EN" "http://www.w3.org/Graphics/SVG/1.1/DTD/svg11.dtd">
<svg version="1.1" xmlns="http://www.w3.org/2000/svg" xmlns:xlink="http://www.w3.org/1999/xlink" x="0px" y="0px"
	 viewBox="0 0 338.312 138.666" enable-background="new 0 0 338.312 138.666"
	 xml:space="preserve">
<path opacity="0.6" fill="#49625B" d="M21.226,110.079c0,0-3.409,3.118-5.114,3.118s-7.501-3.897-7.501-3.897L0,112.898v25.768
	h42.706L21.226,110.079z"/>
<path opacity="0.3" fill="#338C42" d="M20.619,79.568c0,0-5.982,6.447-8.976,6.447C9.37,86.015,2.95,81.362,0,79.128v59.537h58.317
	L20.619,79.568z"/>
<path opacity="0.4" fill="#66BF6D" d="M106.962,138.666l28.732-50.168c0,0,4.56,5.473,6.841,5.473c2.28,0,10.033-6.84,10.033-6.84
	l14.139,7.753l18.099-34.516l15.333,10l5.334-2l10.945,17.85l7.298-10.489l25.996,39.678l5.854-5.016l18.318,28.275H106.962z"/>
<path opacity="0.4" fill="#0D2F02" d="M50.587,120.958c0,0,11.896,3.321,16.323,6.918c4.427,3.597,10.236-8.576,10.236-8.576
	l8.021,6.086c0,0,22.963-0.276,31.815-10.236l2.213,1.384c0,0,25.175-4.979,43.709-22.132c0,0,10.789,11.896,12.449,12.174
	l3.32-5.258l32.366,37.348H33.435L50.587,120.958z"/>
<path opacity="0.4" fill="#87A37B" d="M306.699,109.14c0,0-3.229-28.105-20.562-21.439c-8.774,3.375-22.875-9.004-22.875-9.004
	l-13.12,10.148c0,0-25.398-14.301-39.874-30.907l-15.773,2.306c0,0-41.171,33.213-71.483,4.614c0,0-41.953,19.837-44.668,20.298
	L48.605,76.39l-28.624,62.275h314.767L306.699,109.14z"/>
<polygon opacity="0.6" fill="#49625B" points="336.352,113.717 329.87,104.751 310.111,101.656 301.932,98.904 290.339,108.779
	284.883,102.802 265.448,125.412 261.071,122.553 256.224,138.666 338.312,138.666 338.312,112.898 "/>
<path opacity="0.3" fill="#338C42" d="M336.791,83.765l-18.55,8.26l-12.771-24.658l-20.333-12.332l-9.667,4.666l-17.633-16.43
	l-18.367,26.096l-12.666-5.332l-25.667,36.332l-15,3.668l-8.514,34.631h160.688v-53.84C337.38,84.187,336.791,83.765,336.791,83.765
	z"/>
<path opacity="0.3" fill="#B1D681" d="M316.471,138.666l-17-15.965l-14.667,1.333l-24.333-21.667l-25.334,8.334l-8-15.667
	l-32.666-10.333l-22.332-9.333c0,0-16.269,5.667-19,5.667s-5.678-18.02-5.678-18.02L127.47,81.367L98.139,39.701l-16.394,4.57
	l-8.606-6.57l-12.15,23.975l-19.85-8.642l-20.025,51.488l-6.226,2.304L2.163,138.666H316.471z"/>
<path opacity="0.3" fill="#18642C" d="M39.815,138.666l16.113-38.133c0,0,2.558,4.16,3.837,4.16c1.278,0,5.627-5.199,5.627-5.199
	l7.93,5.894l12.278-22.187l5.882,6.586l1.023-4.16l8.696,13.174l4.093-7.973l14.579,30.159l7.599,1.192l5.958,16.486H39.815z"/>
</svg>
