<?xml version="1.0" encoding="utf-8"?>
<?xml-stylesheet type="text/css" href="../css/main.css" ?>
<!-- Generator: Adobe Illustrator 16.0.0, SVG Export Plug-In . SVG Version: 6.00 Build 0)  -->
<!DOCTYPE svg PUBLIC "-//W3C//DTD SVG 1.1//EN" "http://www.w3.org/Graphics/SVG/1.1/DTD/svg11.dtd">
<svg version="1.1" xmlns="http://www.w3.org/2000/svg" xmlns:xlink="http://www.w3.org/1999/xlink" x="0px" y="0px"
viewBox="0 0 2998 912.357" enable-background="new 0 0 2998 912.357" xml:space="preserve">
<g id="bg">
</g>
<g id="_x33___pattern">
</g>
<g id="_x32___pattern">
</g>
<g id="_x31__pattern">
	<g>
		<g>
			<polygon fill="#BCD0C9" points="119.232,745.587 172.011,605.395 261.812,618.075 281.393,573.438 237.703,507.315
				96.976,528.623 0,467.236 0,912.357 5.506,912.357 38.509,764.635 			"/>
		</g>
		<polygon fill="#B2CBC0" points="473.095,811.156 299.1,600.236 281.393,573.438 261.812,618.075 172.011,605.395 119.232,745.587
			38.509,764.635 5.506,912.357 391.919,912.357 		"/>
		<path fill="#C3D3CD" d="M745.766,471.219L631.747,613.366l77.236,56.073c0,0,137.439,155.396,234.499,242.465l51.969-43.295
			l33.49-87.866l124.322-27.823l196.248-135.612l-151.597-111.973l-98.031-35.524l-26.872-41.546L954.547,550.536L745.766,471.219z"
			/>
		<path fill="#B2CBC0" d="M708.982,669.439l-77.236-56.073l-158.652,197.79l83.484,101.201h386.358l0.544-0.453
			C846.421,824.835,708.982,669.439,708.982,669.439z"/>
		<polygon fill="#A2BCAF" points="391.919,912.357 556.579,912.357 473.095,811.156 		"/>
		<path fill="#BDD0CA" d="M2204.08,498.998l-87.021,25.652l-77.847-46.008c0,0-47.911,67.653-59.821,84.219
			c-12.612,17.541-30.378,43.722-50.642,74.245l46.187-25.016l84.32,32.409c0,0,45.262-47.719,64.101-74.096
			c30.54,12.529,84.787,59.508,84.787,59.508l277.858,117.305c25.159-21.644,46.56-40.137,60.844-52.501l-80.326-117.391
			l-102.743-97.166l-42.233,44.393L2204.08,498.998z"/>
		<path fill="#BDD0CA" d="M1898.182,653.662l-26.174-66.072l-46.223-14.661l-78.054-62.562l-85.246,89.813c0,0,2.864-3.307,0,0
			c-2.696,0.027-97.214,20.776-97.214,20.776l-59.492,48.378l-130.886-69.567l-25.382,17.54l16.768,12.385l230.62,164.421
			l105.197,118.244h48.901c34.568-54.421,117.289-184.177,177.751-275.252L1898.182,653.662z"/>
		<path fill="#B2CBC0" d="M1366.279,629.692l-16.768-12.385L1153.263,752.92l-124.322,27.823l-33.49,87.866l-51.969,43.295
			c0.168,0.15,0.337,0.303,0.505,0.453h396.579c74.866,0,135.266,0,173.884,0c62.54,0,125.08,0,187.647,0l-105.197-118.244
			L1366.279,629.692z"/>
		<path fill="#B2CBC0" d="M943.986,912.357c-0.167-0.15-0.337-0.303-0.505-0.453l-0.544,0.453H943.986z"/>
		<path fill="#B2CBC0" d="M2208.144,629.911c0,0-54.247-46.979-84.787-59.508c-18.839,26.377-64.101,74.096-64.101,74.096
			l-84.32-32.409l-46.187,25.016c-60.462,91.075-143.183,220.831-177.751,275.252h540.16
			c56.903-46.917,136.109-114.61,194.844-165.141L2208.144,629.911z"/>
		<path fill="#BDD0CA" d="M2995.395,464.321l-136.943,104.965l-154.373,52.646l-92.396-0.262l-45.896,56.629
			c0,0-6.976,6.059-18.94,16.416l75.234,109.95l84.569,35.703l83.354-106.325L2998,912.357h2V467.236L2995.395,464.321z"/>
		<path fill="#BDD0CA" d="M2622.08,804.665l-75.234-109.95c-14.284,12.364-35.685,30.857-60.844,52.501L2622.08,804.665z"/>
		<polygon fill="#B0CBBD" points="2706.649,840.368 2622.08,804.665 2695.77,912.357 2998,912.357 2790.004,734.043 		"/>
		<path fill="#A2BCAF" d="M2486.002,747.216c-58.734,50.531-137.94,118.224-194.844,165.141h404.611l-73.689-107.692
			L2486.002,747.216z"/>
		<polygon fill="#E0E0D8" points="503.188,520.033 631.747,613.366 745.766,471.219 954.547,550.536 1073.011,428.265
			1018.795,344.441 916.352,371.954 823.916,281.221 765.404,212.404 677.617,286.057 610.231,304.663 519.581,271.774
			368.72,374.361 343.87,431.011 430.335,426.054 		"/>
		<polygon fill="#CDD7D1" points="299.1,600.236 473.095,811.156 631.747,613.366 503.188,520.033 430.335,426.054 343.87,431.011
			281.393,573.438 		"/>
		<polygon fill="#D3DAD3" points="96.976,528.623 237.703,507.315 281.393,573.438 343.87,431.011 302.935,433.357 68.262,247.444
			0,245.321 0,467.236 		"/>
		<path fill="#DBDDD6" d="M1197.914,505.335l151.597,111.973l25.382-17.54l130.886,69.567l59.492-48.378l97.214-20.776
			l85.246-89.813l78.054,62.562l46.223,14.661l26.174,66.072l30.567-16.557c20.264-30.523,38.029-56.704,50.642-74.245
			c11.91-16.565,59.821-84.219,59.821-84.219l77.847,46.008l87.021-25.652l117.463,25.554l42.233-44.393l-118.357-111.932
			l-131.114-23.833l-41.092-94.282L1873.255,39.014l-138.559,151.623l-89.948-31.29l-82.246,92.612l-145.688,69.977l-157.588-85.872
			l-186.215,192.2l26.872,41.546L1197.914,505.335z"/>
		<path fill="#D3DAD3" d="M2821.24,164.924l-161.247,106.711l-97.099-34.036L2441.01,398.976l-77.233,81.183l102.743,97.166
			l80.326,117.391c11.965-10.356,18.94-16.416,18.94-16.416l45.896-56.629l92.396,0.262l154.373-52.646l136.943-104.965l4.605,2.915
			V245.321l-69.976-2.176L2821.24,164.924z"/>
	</g>
</g>
</svg>
