<?xml version="1.0" encoding="utf-8"?>
<!-- Generator: Adobe Illustrator 19.2.1, SVG Export Plug-In . SVG Version: 6.00 Build 0)  -->
<svg version="1.1" xmlns="http://www.w3.org/2000/svg" xmlns:xlink="http://www.w3.org/1999/xlink" x="0px" y="0px"
	 viewBox="0 0 800 600" style="enable-background:new 0 0 800 600;" xml:space="preserve">
<style type="text/css">
	.st0{fill:none;}
	.st1{fill-rule:evenodd;clip-rule:evenodd;fill:#183152;}
	.st2{fill-rule:evenodd;clip-rule:evenodd;fill:#1A8BB3;}
	.st3{fill-rule:evenodd;clip-rule:evenodd;fill:#4DAAAB;}
	.st4{fill-rule:evenodd;clip-rule:evenodd;fill:#6C98A1;}
</style>
<g id="Layer_1">
	<rect class="st0" width="800" height="600"/>
</g>
<g id="Layer_2">
	<g>
		<path class="st1" d="M521,104l-108.5-1.5l-50.9,50.8h36.5c1.3-4.1,5.1-7,9.6-7c5.5,0,10,4.4,10,10c0,5.5-4.5,10-10,10
			c-4.2,0-7.8-2.6-9.3-6.3h-43.5l-39.4,39.4l-1,1H313h-35.5l-18,12.1l-0.8,0.5h-1.1h-162v-6.7h161l8.9-6H121.1v-6.8h154.4l58.9-39.7
			l0.8-0.6h1H352l56.7-56.6l1-1h1.4l109.7,1.5c1.3-4,5.1-6.9,9.6-6.9c5.6,0,10,4.5,10,10c0,5.6-4.4,10.1-10,10.1
			C526.1,110.4,522.5,107.7,521,104L521,104z M407.7,152.4c2.1,0,3.8,1.8,3.8,3.9c0,2.1-1.7,3.8-3.8,3.8c-2.1,0-3.8-1.7-3.8-3.8
			C403.9,154.1,405.5,152.4,407.7,152.4L407.7,152.4z M530.4,96.5c2.1,0,3.8,1.8,3.8,3.8c0,2.1-1.7,3.9-3.8,3.9
			c-2.1,0-3.8-1.8-3.8-3.9C526.5,98.3,528.2,96.5,530.4,96.5L530.4,96.5z M675.5,411.7c5.5,0,10,4.5,10,10c0,5.6-4.5,10-10,10
			c-4.3,0-7.9-2.6-9.3-6.3H497h-1.4l-1-1L435,364.7H78.8V358h357.6h1.4l1,0.9l59.7,59.7H666C667.3,414.6,671,411.7,675.5,411.7
			L675.5,411.7z M675.5,417.8c2.1,0,3.8,1.7,3.8,3.8c0,2.1-1.7,3.8-3.8,3.8c-2.1,0-3.9-1.7-3.9-3.8
			C671.6,419.5,673.4,417.8,675.5,417.8L675.5,417.8z M724.9,311.6c5.6,0,10.1,4.5,10.1,10.1c0,5.5-4.5,10-10.1,10
			c-4.2,0-7.9-2.7-9.3-6.4H439.9h-0.4l-0.5-0.1l-72.5-19.4H119v-6.7h247.9h0.5l0.5,0.1l72.5,19.4h179.2c-2.8-0.9-4.9-3.1-6-5.6
			H446.2h-0.4l-0.5-0.2l-58-15.5H101v-6.8h286.7h0.5l0.5,0.2l58,15.5h166.5c1.2-4,5-7,9.6-7c5.5,0,10,4.4,10,10
			c0,4.4-2.8,8.2-6.8,9.5h89.4C716.7,314.5,720.5,311.6,724.9,311.6L724.9,311.6z M724.9,317.8c2.1,0,3.9,1.8,3.9,3.9
			c0,2.1-1.8,3.8-3.9,3.8c-2.1,0-3.8-1.8-3.8-3.8C721.1,319.6,722.8,317.8,724.9,317.8L724.9,317.8z M622.8,305.2
			c2.1,0,3.8,1.8,3.8,3.9c0,2.1-1.8,3.8-3.8,3.8c-2.1,0-3.9-1.7-3.9-3.8C618.9,307,620.6,305.2,622.8,305.2L622.8,305.2z
			 M706.7,212.4c5.6,0,10,4.5,10,10c0,5.6-4.4,10.1-10,10.1c-4.1,0-7.6-2.5-9.2-6.1H550.9l-89.1,51.4l-0.8,0.5H460H118v-6.7h341.2
			l89.1-51.4l0.8-0.5h0.9h147.1C698.3,215.4,702.1,212.4,706.7,212.4L706.7,212.4z M706.7,218.6c2.1,0,3.9,1.8,3.9,3.8
			c0,2.1-1.8,3.9-3.9,3.9c-2.1,0-3.8-1.8-3.8-3.9C702.9,220.3,704.6,218.6,706.7,218.6L706.7,218.6z M380.9,423c5.5,0,10,4.5,10,10
			c0,5.6-4.5,10.1-10,10.1c-4.4,0-8.1-2.8-9.5-6.6h-16.1l38,37.9h61c1.3-4.1,5-7.1,9.6-7.1c5.6,0,10.1,4.5,10.1,10
			c0,5.6-4.5,10.1-10.1,10.1c-4.2,0-7.8-2.6-9.2-6.3h-62.7h-1.4l-1-1l-43.7-43.7h-11h-1.4l-1-1l-39.6-39.5H122.7v-6.7h163.4
			l-0.5-0.5H122.2V382H287h1.4l1,1l6.3,6.3h10.9h1.5l1,1l39.5,39.5h22.9C372.8,425.9,376.6,423,380.9,423L380.9,423z M380.9,429.2
			c2.1,0,3.8,1.8,3.8,3.8c0,2.1-1.8,3.9-3.8,3.9c-2.1,0-3.9-1.8-3.9-3.9C377,431,378.8,429.2,380.9,429.2L380.9,429.2z M463.9,473.5
			c2.1,0,3.9,1.8,3.9,3.8c0,2.1-1.8,3.9-3.9,3.9c-2.1,0-3.8-1.8-3.8-3.9C460,475.2,461.8,473.5,463.9,473.5L463.9,473.5z
			 M311.7,193.6l33.6-33.6h-7.9l-49.8,33.6H311.7z M339,429.7l-33.8-33.7h-2.8l33.8,33.7H339z"/>
		<path class="st2" d="M352.8,312H95.7v-2.7h257.1c0.7-2.2,2.8-3.9,5.2-3.9c3,0,5.4,2.4,5.4,5.4c0,3-2.4,5.3-5.4,5.3
			C355.5,316.1,353.4,314.4,352.8,312L352.8,312z M595,182.3c3.1,0,5.4,2.4,5.4,5.4c0,3-2.4,5.4-5.4,5.4c-2.4,0-4.5-1.7-5.2-4h-33.1
			l-111.3,64.1l-0.3,0.2h-0.4H65v-2.7h379.4l111.2-64.2l0.3-0.2h0.4h33.5C590.4,184.1,592.5,182.3,595,182.3L595,182.3z M595,185.7
			c1.1,0,2.1,0.9,2.1,2.1c0,1.1-1,2.1-2.1,2.1c-1.1,0-2.1-0.9-2.1-2.1C593,186.6,594,185.7,595,185.7L595,185.7z M607.7,91.4
			c3,0,5.4,2.4,5.4,5.4c0,3-2.4,5.4-5.4,5.4c-2.5,0-4.7-1.8-5.3-4.3h-36.5L310,245.5l-0.3,0.2h-0.4H103.1V243H309L564.8,95.4
			l0.4-0.2h0.3h37C603.1,93.1,605.2,91.4,607.7,91.4L607.7,91.4z M607.7,94.8c1.1,0,2.1,0.9,2.1,2.1c0,1.1-1,2.1-2.1,2.1
			c-1.1,0-2.1-0.9-2.1-2.1C605.6,95.7,606.5,94.8,607.7,94.8L607.7,94.8z M358.1,308.7c1.1,0,2.1,1,2.1,2.1s-0.9,2.1-2.1,2.1
			c-1.1,0-2.1-0.9-2.1-2.1S356.9,308.7,358.1,308.7L358.1,308.7z M224.2,214.9c3,0,5.4,2.4,5.4,5.4c0,3-2.4,5.4-5.4,5.4
			c-2.5,0-4.6-1.8-5.2-4H106.3V219H219C219.6,216.7,221.7,214.9,224.2,214.9L224.2,214.9z M224.2,218.3c1.1,0,2.1,0.9,2.1,2.1
			c0,1.1-0.9,2.1-2.1,2.1s-2.1-0.9-2.1-2.1C222.2,219.2,223.1,218.3,224.2,218.3L224.2,218.3z"/>
		<path class="st3" d="M288,215l-41.9,24l-0.4,0.2h-0.5h-158V236h157.6l41.5-23.8c-0.2-0.7-0.4-1.5-0.4-2.1c0-4,3.3-7.3,7.3-7.3
			c4.1,0,7.3,3.3,7.3,7.3s-3.3,7.3-7.3,7.3C291.2,217.4,289.3,216.4,288,215L288,215z M229.3,361.2c4.1,0,7.3,3.3,7.3,7.3
			c0,4-3.3,7.3-7.3,7.3c-3.6,0-6.6-2.6-7.2-6H119v-3.3h103.3C223.2,363.5,226,361.2,229.3,361.2L229.3,361.2z M229.3,365.7
			c1.6,0,2.8,1.3,2.8,2.8c0,1.5-1.2,2.8-2.8,2.8c-1.5,0-2.8-1.3-2.8-2.8C226.5,367,227.8,365.7,229.3,365.7L229.3,365.7z
			 M304.1,372.5c4.1,0,7.3,3.2,7.3,7.3c0,4-3.3,7.3-7.3,7.3c-4.1,0-7.3-3.3-7.3-7.3c0-1.4,0.4-2.7,1-3.7l-19.6-19.5H101v-3.3h177.9
			h0.7l0.5,0.5l20,19.9C301.2,372.9,302.6,372.5,304.1,372.5L304.1,372.5z M304.1,377c1.5,0,2.8,1.2,2.8,2.8c0,1.5-1.3,2.7-2.8,2.7
			c-1.5,0-2.8-1.2-2.8-2.7C301.3,378.2,302.6,377,304.1,377L304.1,377z M539.2,495c4.1,0,7.3,3.3,7.3,7.3c0,4-3.3,7.3-7.3,7.3
			c-3.7,0-6.7-2.7-7.3-6.2h-74.1h-0.7l-0.5-0.5L284.5,331.2H95.7v-3.3h189.5h0.6l0.5,0.5l172.1,171.8h73.7
			C533,497.2,535.8,495,539.2,495L539.2,495z M539.2,499.5c1.5,0,2.8,1.3,2.8,2.8c0,1.6-1.2,2.8-2.8,2.8c-1.6,0-2.8-1.2-2.8-2.8
			C536.3,500.8,537.6,499.5,539.2,499.5L539.2,499.5z M570,401c4.1,0,7.3,3.3,7.3,7.3s-3.3,7.3-7.3,7.3c-3.4,0-6.3-2.3-7.1-5.5
			H453.6h-0.7l-0.5-0.5l-83.4-83.3H74.6v-3.3h295.2h0.6l0.5,0.5l83.4,83.3h108.5C563.5,403.6,566.4,401,570,401L570,401z M570,405.5
			c1.5,0,2.8,1.3,2.8,2.8c0,1.5-1.3,2.8-2.8,2.8c-1.5,0-2.8-1.3-2.8-2.8C567.2,406.8,568.5,405.5,570,405.5L570,405.5z M293.3,207.2
			c1.6,0,2.8,1.2,2.8,2.8c0,1.5-1.2,2.7-2.8,2.7c-1.5,0-2.8-1.2-2.8-2.7C290.5,208.4,291.8,207.2,293.3,207.2L293.3,207.2z"/>
		<path class="st4" d="M530.2,280.4h-31.7l-11.5,6.6l-0.6,0.3h-0.7H132.8v-5.1H485l11.5-6.6l0.6-0.4h0.7h32.3c1-3.8,4.4-6.6,8.6-6.6
			c5,0,8.9,4,8.9,8.9c0,4.9-4,8.9-8.9,8.9C534.7,286.4,531.4,283.9,530.2,280.4L530.2,280.4z M599.3,475c5,0,8.9,4,8.9,8.9
			c0,4.9-4,8.9-8.9,8.9c-4,0-7.3-2.6-8.5-6.3h-108h-1.1l-0.8-0.8L340.2,345.2H109.5V340h231.8h1.1l0.8,0.8l140.8,140.6h106.9
			C591.9,477.8,595.3,475,599.3,475L599.3,475z M599.3,480.5c1.9,0,3.4,1.5,3.4,3.4c0,1.8-1.5,3.4-3.4,3.4c-1.8,0-3.4-1.5-3.4-3.4
			C596,482,597.5,480.5,599.3,480.5L599.3,480.5z M538.6,274.2c1.9,0,3.4,1.5,3.4,3.4c0,1.9-1.5,3.4-3.4,3.4c-1.8,0-3.4-1.5-3.4-3.4
			C535.3,275.7,536.8,274.2,538.6,274.2L538.6,274.2z M501.9,185.8c4.9,0,8.9,4,8.9,8.9c0,5-4,8.9-8.9,8.9c-4.2,0-7.7-2.9-8.6-6.8
			h-24.8l-125.8,72.6l-0.6,0.3h-0.7H78.8v-5.1h261.9l117.6-67.8H357.9l-69,39.9l-0.6,0.4h-0.7H98.3v1.9h-5.1v-4.5v-2.5h2.6h191.2
			l69.1-39.9l0.6-0.4h0.7h109.8l90.1-51.9l0.6-0.4h0.7h92c1.2-3.5,4.5-6.1,8.5-6.1c4.9,0,8.9,4,8.9,8.9c0,5-4.1,8.9-8.9,8.9
			c-4.1,0-7.5-2.7-8.6-6.6h-91.3l-81.8,47.2h16.2C494.7,188.3,498,185.8,501.9,185.8L501.9,185.8z M501.9,191.3
			c1.8,0,3.4,1.5,3.4,3.4c0,1.9-1.5,3.4-3.4,3.4c-1.9,0-3.4-1.5-3.4-3.4C498.5,192.9,500,191.3,501.9,191.3L501.9,191.3z M659,138.8
			c1.9,0,3.4,1.5,3.4,3.4c0,1.9-1.5,3.4-3.4,3.4c-1.8,0-3.4-1.5-3.4-3.4C655.7,140.3,657.2,138.8,659,138.8L659,138.8z"/>
	</g>
</g>
</svg>
